<?xml version="1.0" standalone="no"?>
<!DOCTYPE svg PUBLIC "-//W3C//DTD SVG 20010904//EN"
 "http://www.w3.org/TR/2001/REC-SVG-20010904/DTD/svg10.dtd">
<svg version="1.0" xmlns="http://www.w3.org/2000/svg"
 width="1024.000000pt" height="1024.000000pt" viewBox="0 0 1024.000000 1024.000000"
 preserveAspectRatio="xMidYMid meet">
<metadata>
Created by potrace 1.14, written by Peter Selinger 2001-2017
</metadata>
<g transform="translate(0.000000,1024.000000) scale(0.100000,-0.100000)"
fill="#000000" stroke="none">
<path d="M3235 9274 c-202 -43 -393 -192 -486 -379 -80 -162 -73 7 -79 -1858
l-5 -1668 -250 222 c-341 303 -365 323 -480 379 -146 71 -210 85 -390 85 -126
0 -163 -4 -230 -23 -321 -93 -557 -346 -630 -676 -23 -105 -16 -309 14 -411
47 -158 130 -294 247 -405 38 -36 447 -401 909 -812 l840 -746 23 -113 c88
-430 327 -859 658 -1179 209 -202 389 -328 649 -456 646 -316 1369 -360 2060
-124 161 55 434 190 575 285 574 384 944 951 1046 1605 23 145 25 497 3 640
-11 78 -13 259 -11 1008 l3 912 627 0 c399 0 650 4 688 11 95 17 213 80 288
155 75 75 138 193 155 288 15 82 15 1880 0 1962 -17 95 -80 213 -155 288 -75
75 -193 138 -288 155 -83 15 -2619 15 -2702 0 -95 -17 -213 -80 -288 -155 -75
-75 -138 -193 -155 -288 -7 -36 -11 -231 -11 -491 l0 -432 -107 -6 c-196 -10
-342 -75 -479 -211 -55 -55 -95 -106 -124 -159 l-42 -77 -55 50 c-68 62 -161
115 -261 148 -66 22 -96 25 -207 26 -109 1 -142 -3 -205 -22 -82 -26 -184 -78
-242 -124 l-38 -30 0 997 c0 1122 3 1080 -75 1240 -73 150 -180 257 -330 330
-148 72 -304 92 -460 59z m254 -239 c165 -39 295 -161 352 -330 11 -33 15
-366 19 -1847 l5 -1806 89 53 c49 30 102 59 118 66 l28 11 0 477 c0 300 4 499
11 537 46 250 293 426 541 385 201 -33 361 -189 397 -385 7 -36 11 -200 11
-405 l0 -346 120 3 120 3 0 453 c0 282 4 475 11 512 26 143 130 280 260 342
75 36 196 59 252 48 l37 -7 0 -372 c0 -292 3 -385 15 -435 38 -161 152 -303
302 -375 l83 -39 0 -187 0 -187 58 -28 c31 -15 82 -43 113 -62 31 -19 59 -34
63 -34 3 0 6 105 6 233 l1 232 239 -245 239 -245 43 48 c244 271 415 456 425
456 10 1 13 -214 16 -981 2 -751 6 -1015 17 -1116 27 -260 -21 -587 -127 -857
-246 -628 -802 -1118 -1487 -1310 -768 -216 -1601 -44 -2196 453 -391 327
-658 785 -730 1252 -6 41 -13 84 -15 95 -2 11 -17 28 -32 37 -15 9 -62 47
-104 85 -211 191 -602 540 -1129 1009 -322 286 -602 543 -622 570 -276 379
-82 904 372 1009 193 44 399 -8 558 -142 68 -58 693 -611 702 -622 3 -3 58
-55 123 -115 l117 -108 0 1898 c0 2069 -3 1960 56 2076 36 71 123 159 193 197
108 57 216 72 330 46z m5472 -855 c138 -26 233 -121 259 -260 14 -71 14 -1779
0 -1850 -26 -139 -121 -234 -259 -260 -34 -6 -351 -10 -845 -10 l-791 0 -173
-190 c-95 -105 -176 -190 -181 -190 -4 0 -89 86 -190 190 l-183 190 -87 0
c-49 0 -112 5 -141 10 -139 26 -234 121 -260 259 -14 73 -14 1779 0 1852 26
134 122 233 252 258 64 13 2533 13 2599 1z"/>
<path d="M4910 4281 c-171 -53 -265 -225 -215 -396 13 -48 28 -70 79 -121 51
-51 73 -66 121 -79 199 -58 388 71 403 275 7 101 -16 160 -93 237 -48 48 -73
65 -115 77 -56 17 -137 20 -180 7z"/>
<path d="M6176 4266 c-71 -30 -128 -83 -164 -151 -23 -43 -27 -62 -27 -135 0
-70 4 -93 23 -130 32 -61 87 -116 147 -148 43 -23 62 -27 140 -27 78 0 97 4
141 27 140 74 208 236 158 381 -21 61 -94 141 -158 174 -76 39 -181 42 -260 9z"/>
<path d="M5180 2943 c1 -43 33 -151 61 -204 38 -70 136 -167 204 -201 99 -50
154 -63 265 -63 110 0 166 13 260 61 45 22 150 109 150 123 0 4 -141 73 -313
154 l-314 147 -156 0 c-143 0 -157 -2 -157 -17z"/>
<path d="M6714 7270 c-86 -27 -180 -123 -204 -208 -27 -98 0 -223 64 -298 55
-65 126 -97 222 -102 71 -4 89 -1 136 20 75 35 122 79 158 150 26 52 30 72 30
138 0 66 -4 86 -30 138 -56 110 -140 164 -265 168 -44 2 -94 -1 -111 -6z"/>
<path d="M7604 7270 c-86 -27 -180 -123 -204 -208 -27 -98 0 -223 64 -298 55
-65 126 -97 222 -102 71 -4 89 -1 136 20 75 35 122 79 158 150 26 52 30 72 30
138 0 66 -4 86 -30 138 -56 110 -140 164 -265 168 -44 2 -94 -1 -111 -6z"/>
<path d="M8504 7260 c-86 -27 -180 -123 -204 -208 -27 -98 0 -223 64 -298 55
-65 126 -97 222 -102 71 -4 89 -1 136 20 75 35 122 79 158 150 26 52 30 72 30
138 0 66 -4 86 -30 138 -56 110 -140 164 -265 168 -44 2 -94 -1 -111 -6z"/>
</g>
</svg>
